<svg width="18" height="18" viewBox="0 0 18 18" fill="none" xmlns="http://www.w3.org/2000/svg">
<path d="M13.6232 4.5H12.1492V3.15C12.1492 1.41328 10.7359 0 8.99923 0C7.26251 0 5.84923 1.41328 5.84923 3.15V4.5H4.3753C3.2002 4.5 2.21495 5.41758 2.131 6.58962L1.48809 15.5896C1.44373 16.2105 1.66124 16.8275 2.08575 17.2828C2.50984 17.7385 3.10968 18 3.7324 18H14.2661C14.8888 18 15.4886 17.7385 15.9127 17.2828C16.3372 16.8275 16.5548 16.2105 16.5104 15.5896L15.8675 6.58962C15.7835 5.41758 14.7982 4.5 13.6232 4.5ZM6.74923 3.15C6.74923 1.90944 7.75867 0.9 8.99923 0.9C10.2398 0.9 11.2492 1.90944 11.2492 3.15V4.5H6.74923V3.15ZM15.2544 16.6698C14.996 16.9471 14.6453 17.1 14.2661 17.1H3.73236C3.35313 17.1 3.00241 16.9471 2.74401 16.6698C2.48604 16.3924 2.35905 16.0317 2.38588 15.6537L3.02878 6.65374C3.07888 5.95062 3.67038 5.4 4.37527 5.4H13.6231C14.328 5.4 14.9195 5.95062 14.9696 6.65378L15.6125 15.6538C15.6394 16.0317 15.5123 16.3925 15.2544 16.6698Z" fill="white"/>
</svg>
