<svg width="22" height="22" viewBox="0 0 22 22" fill="none" xmlns="http://www.w3.org/2000/svg">
<g clip-path="url(#clip0_4787_57)">
<path d="M11 22C4.93436 22 0 17.0656 0 11C0 4.93436 4.93436 0 11 0C17.0656 0 22 4.93436 22 11C22 17.0656 17.0656 22 11 22ZM11 1.375C5.69252 1.375 1.375 5.69252 1.375 11C1.375 16.3075 5.69252 20.625 11 20.625C16.3075 20.625 20.625 16.3075 20.625 11C20.625 5.69252 16.3075 1.375 11 1.375Z" fill="white" fill-opacity="0.6"/>
<path d="M7.59749 15.0901C7.42142 15.0901 7.24535 15.0233 7.11157 14.8885C6.84302 14.6199 6.84302 14.1845 7.11157 13.916L13.9178 7.10962C14.1865 6.84106 14.6219 6.84106 14.8904 7.10962C15.159 7.37817 15.159 7.81357 14.8904 8.08229L8.08408 14.8885C7.94846 15.0233 7.77255 15.0901 7.59749 15.0901Z" fill="white" fill-opacity="0.6"/>
<path d="M14.4017 15.0892C14.2258 15.0892 14.0497 15.0224 13.9159 14.8876L7.10975 8.08225C6.84102 7.81369 6.84102 7.3783 7.10975 7.10975C7.3783 6.84102 7.81369 6.84102 8.08225 7.10975L14.8884 13.9159C15.1572 14.1845 15.1572 14.6199 14.8884 14.8884C14.7538 15.0224 14.5777 15.0892 14.4017 15.0892Z" fill="white" fill-opacity="0.6"/>
</g>
<defs>
<clipPath id="clip0_4787_57">
<rect width="22" height="22" fill="white"/>
</clipPath>
</defs>
</svg>
