<svg width="44" height="44" viewBox="0 0 44 44" fill="none" xmlns="http://www.w3.org/2000/svg">
<path d="M21.7859 15.1182L18.8464 28.8612H15.2907L18.2306 15.1182H21.7859ZM36.7441 23.9922L38.6154 18.8314L39.6923 23.9922H36.7441ZM40.7124 28.8612H44L41.1278 15.1182H38.0952C37.4118 15.1182 36.8356 15.5145 36.5806 16.1255L31.2458 28.8612H34.9797L35.721 26.8088H40.2818L40.7124 28.8612ZM31.4309 24.3746C31.4464 20.7476 26.4169 20.5467 26.4506 18.926C26.4615 18.4336 26.9313 17.9091 27.9581 17.7749C28.4672 17.7094 29.8721 17.6562 31.4646 18.39L32.0874 15.4746C31.2322 15.1652 30.1314 14.8672 28.7618 14.8672C25.247 14.8672 22.7745 16.7342 22.7547 19.4098C22.7321 21.3884 24.5209 22.4915 25.8658 23.1506C27.2524 23.8241 27.717 24.2559 27.7102 24.8577C27.7006 25.7798 26.6046 26.1881 25.5839 26.2036C23.7954 26.2314 22.7587 25.7201 21.9325 25.335L21.2871 28.3478C22.1192 28.7286 23.6523 29.06 25.2399 29.077C28.9766 29.077 31.4198 27.232 31.4309 24.3746ZM16.7055 15.1182L10.9447 28.8612H7.18697L4.35187 17.8933C4.18001 17.2188 4.0301 16.9709 3.5074 16.686C2.65242 16.2217 1.24105 15.7874 0 15.5172L0.0840772 15.1182H6.13386C6.90445 15.1182 7.59777 15.631 7.77427 16.5187L9.27188 24.472L12.9703 15.1182H16.7055Z" fill="white"/>
</svg>
