<svg width="19" height="19" viewBox="0 0 19 19" fill="none" xmlns="http://www.w3.org/2000/svg">
<g clip-path="url(#clip0_4443_28)">
<path d="M18.2324 17.3927L13.2541 12.4146C14.3162 11.1621 14.9588 9.54334 14.9588 7.77649C14.9586 3.81588 11.7367 0.59375 7.7762 0.59375C3.81573 0.59375 0.59375 3.81588 0.59375 7.77649C0.59375 11.737 3.81573 14.9589 7.7762 14.9589C9.5432 14.9589 11.1621 14.3164 12.4144 13.2543L17.3927 18.2324C17.5086 18.3484 17.6606 18.4064 17.8126 18.4064C17.9646 18.4064 18.1165 18.3484 18.2326 18.2324C18.4643 18.0006 18.4643 17.6244 18.2324 17.3927ZM1.78125 7.77649C1.78125 4.47064 4.47049 1.78125 7.7762 1.78125C11.0819 1.78125 13.7713 4.47064 13.7713 7.77649C13.7713 11.0822 11.0819 13.7714 7.7762 13.7714C4.47049 13.7713 1.78125 11.082 1.78125 7.77649Z" fill="#ADADAD"/>
</g>
<defs>
<clipPath id="clip0_4443_28">
<rect width="19" height="19" fill="white"/>
</clipPath>
</defs>
</svg>
