<svg width="33" height="33" viewBox="0 0 33 33" fill="none" xmlns="http://www.w3.org/2000/svg">
<path d="M20.8433 8.44922H11.9707V24.3936H20.8433V8.44922Z" fill="#7375CF"/>
<path d="M12.5336 16.4214C12.5322 14.8859 12.8801 13.3701 13.5511 11.9889C14.2221 10.6077 15.1986 9.39727 16.4065 8.44922C14.9106 7.27342 13.1141 6.54221 11.2223 6.33916C9.3305 6.13611 7.41972 6.46942 5.70839 7.30099C3.99706 8.13255 2.55421 9.42882 1.54476 11.0416C0.535318 12.6545 0 14.5187 0 16.4214C0 18.3241 0.535318 20.1884 1.54476 21.8012C2.55421 23.414 3.99706 24.7103 5.70839 25.5419C7.41972 26.3734 9.3305 26.7067 11.2223 26.5037C13.1141 26.3006 14.9106 25.5694 16.4065 24.3936C15.1986 23.4456 14.2221 22.2351 13.5511 20.8539C12.8801 19.4727 12.5322 17.957 12.5336 16.4214Z" fill="#EB001B"/>
<path d="M31.8442 22.7041V22.3777H31.9758V22.3112H31.6406V22.3777H31.7723V22.7041H31.8442ZM32.495 22.7041V22.3105H32.3923L32.2741 22.5813L32.1559 22.3105H32.053V22.7041H32.1256V22.4072L32.2364 22.6632H32.3117L32.4225 22.4066V22.7041H32.495Z" fill="#00A2E5"/>
<path d="M32.8122 16.4214C32.8123 18.3241 32.2771 20.1883 31.2677 21.8012C30.2583 23.414 28.8155 24.7103 27.1042 25.5418C25.3929 26.3734 23.4821 26.7067 21.5904 26.5037C19.6986 26.3006 17.9021 25.5694 16.4062 24.3936C17.6131 23.4446 18.5888 22.234 19.2597 20.853C19.9306 19.472 20.2792 17.9567 20.2792 16.4214C20.2792 14.8861 19.9306 13.3708 19.2597 11.9898C18.5888 10.6089 17.6131 9.39822 16.4062 8.44922C17.9021 7.27342 19.6986 6.54221 21.5904 6.33916C23.4821 6.13611 25.3929 6.46943 27.1042 7.301C28.8155 8.13258 30.2583 9.42885 31.2677 11.0417C32.2771 12.6545 32.8123 14.5188 32.8122 16.4214Z" fill="#00A2E5"/>
</svg>
