<svg width="33" height="33" viewBox="0 0 33 33" fill="none" xmlns="http://www.w3.org/2000/svg">
<path d="M20.8433 8.44922H11.9707V24.3936H20.8433V8.44922Z" fill="#FF5F00"/>
<path d="M12.5335 16.4214C12.5321 14.8858 12.8801 13.3701 13.5511 11.9889C14.2221 10.6077 15.1985 9.39726 16.4065 8.44921C14.9106 7.27342 13.1141 6.54221 11.2223 6.33916C9.33047 6.13611 7.41971 6.46942 5.70838 7.30098C3.99705 8.13255 2.5542 9.42881 1.54476 11.0416C0.535316 12.6544 0 14.5187 0 16.4214C0 18.3241 0.535316 20.1883 1.54476 21.8012C2.5542 23.414 3.99705 24.7102 5.70838 25.5418C7.41971 26.3734 9.33047 26.7067 11.2223 26.5036C13.1141 26.3006 14.9106 25.5694 16.4065 24.3936C15.1985 23.4455 14.2221 22.2351 13.5511 20.8539C12.8801 19.4727 12.5321 17.9569 12.5335 16.4214Z" fill="#EB001B"/>
<path d="M32.8122 16.4214C32.8123 18.324 32.277 20.1883 31.2676 21.8011C30.2582 23.4139 28.8154 24.7102 27.1041 25.5418C25.3929 26.3733 23.4821 26.7067 21.5903 26.5036C19.6986 26.3006 17.9021 25.5694 16.4062 24.3936C17.6131 23.4446 18.5888 22.2339 19.2597 20.8529C19.9306 19.472 20.2792 17.9567 20.2792 16.4214C20.2792 14.8861 19.9306 13.3708 19.2597 11.9898C18.5888 10.6089 17.6131 9.39821 16.4062 8.44921C17.9021 7.27342 19.6986 6.54221 21.5903 6.33916C23.4821 6.13611 25.3929 6.46943 27.1041 7.301C28.8154 8.13257 30.2582 9.42884 31.2676 11.0417C32.277 12.6545 32.8123 14.5187 32.8122 16.4214Z" fill="#F79E1B"/>
</svg>
