<svg width="18" height="18" viewBox="0 0 18 18" fill="none" xmlns="http://www.w3.org/2000/svg">
<path d="M11.4583 17.9167H6.45833C1.93333 17.9167 0 15.9833 0 11.4583V6.45833C0 1.93333 1.93333 0 6.45833 0H11.4583C15.9833 0 17.9167 1.93333 17.9167 6.45833V11.4583C17.9167 15.9833 15.9833 17.9167 11.4583 17.9167ZM6.45833 1.25C2.61667 1.25 1.25 2.61667 1.25 6.45833V11.4583C1.25 15.3 2.61667 16.6667 6.45833 16.6667H11.4583C15.3 16.6667 16.6667 15.3 16.6667 11.4583V6.45833C16.6667 2.61667 15.3 1.25 11.4583 1.25H6.45833Z" fill="white"/>
</svg>
