<svg width="13" height="13" viewBox="0 0 13 13" fill="none" xmlns="http://www.w3.org/2000/svg">
<g clip-path="url(#clip0_4989_244)">
<path d="M0.40625 2.29217H6.59153C6.77795 3.1407 7.53571 3.77772 8.43941 3.77772C9.34311 3.77772 10.1009 3.14072 10.2873 2.29217H12.5938C12.8181 2.29217 13 2.11027 13 1.88592C13 1.66157 12.8181 1.47967 12.5938 1.47967H10.2871C10.1003 0.631572 9.34152 -0.00585938 8.43941 -0.00585938C7.53683 -0.00585938 6.77838 0.631471 6.59169 1.47967H0.40625C0.181898 1.47967 0 1.66157 0 1.88592C0 2.11027 0.181898 2.29217 0.40625 2.29217ZM7.36016 1.88699C7.36016 1.88554 7.36018 1.88407 7.36018 1.88262C7.36196 1.28932 7.84608 0.806666 8.43941 0.806666C9.0319 0.806666 9.51605 1.28866 9.51861 1.88168L9.51869 1.88765C9.51775 2.48197 9.03396 2.96525 8.43941 2.96525C7.84512 2.96525 7.36148 2.48245 7.36013 1.88848L7.36016 1.88699ZM12.5938 10.7087H10.2871C10.1003 9.86061 9.34152 9.22315 8.43941 9.22315C7.53683 9.22315 6.77838 9.86051 6.59169 10.7087H0.40625C0.181898 10.7087 0 10.8906 0 11.1149C0 11.3393 0.181898 11.5212 0.40625 11.5212H6.59153C6.77795 12.3697 7.53571 13.0067 8.43941 13.0067C9.34311 13.0067 10.1009 12.3697 10.2873 11.5212H12.5938C12.8181 11.5212 13 11.3393 13 11.1149C13 10.8906 12.8181 10.7087 12.5938 10.7087ZM8.43941 12.1942C7.84512 12.1942 7.36148 11.7114 7.36013 11.1175L7.36016 11.116C7.36016 11.1145 7.36018 11.1131 7.36018 11.1116C7.36196 10.5183 7.84608 10.0357 8.43941 10.0357C9.0319 10.0357 9.51605 10.5176 9.51861 11.1106L9.51869 11.1166C9.51783 11.711 9.03401 12.1942 8.43941 12.1942ZM12.5938 6.09419H6.40847C6.22205 5.24566 5.46429 4.60866 4.56059 4.60866C3.65688 4.60866 2.89913 5.24566 2.71271 6.09419H0.40625C0.181898 6.09419 0 6.27609 0 6.50044C0 6.72481 0.181898 6.90669 0.40625 6.90669H2.71291C2.89971 7.75476 3.65848 8.39222 4.56059 8.39222C5.46317 8.39222 6.22162 7.75486 6.40831 6.90669H12.5938C12.8181 6.90669 13 6.72481 13 6.50044C13 6.27609 12.8181 6.09419 12.5938 6.09419ZM5.63984 6.49937C5.63984 6.50084 5.63982 6.50229 5.63982 6.50374C5.63804 7.09704 5.15392 7.57969 4.56059 7.57969C3.9681 7.57969 3.48395 7.0977 3.48138 6.5047L3.48131 6.49876C3.4822 5.90437 3.96602 5.42116 4.56059 5.42116C5.15488 5.42116 5.63852 5.90394 5.63987 6.49792L5.63984 6.49937Z" fill="#858585"/>
</g>
<defs>
<clipPath id="clip0_4989_244">
<rect width="13" height="13" fill="white"/>
</clipPath>
</defs>
</svg>
