<svg width="130" height="14" viewBox="0 0 130 14" fill="none" xmlns="http://www.w3.org/2000/svg">
<g clip-path="url(#clip0_4443_53)">
<path d="M0 13.4816V0.509766H15.2758C17.1684 0.509766 18.5299 0.791495 19.3603 1.35495C20.2028 1.90616 20.6241 2.79423 20.6241 4.01913V4.11101C20.6241 5.58088 19.9708 6.54245 18.6643 6.99566C19.9708 7.43663 20.6241 8.37367 20.6241 9.80683V9.89869C20.6241 11.1481 20.2089 12.0607 19.3786 12.6364C18.5483 13.1998 17.1807 13.4816 15.2758 13.4816H0ZM2.01479 6.02186H15.697C16.6739 6.00962 17.3882 5.8565 17.84 5.56253C18.2918 5.26855 18.5177 4.82146 18.5177 4.22125V4.14775C18.5177 3.49854 18.2857 3.03921 17.8217 2.76973C17.3577 2.48799 16.5396 2.34713 15.3673 2.34713H2.01479V6.02186ZM2.01479 11.6442H15.3673C16.5396 11.6442 17.3577 11.5033 17.8217 11.2216C18.2857 10.9276 18.5177 10.4438 18.5177 9.77009V9.6966C18.5177 8.44717 17.5775 7.82249 15.697 7.82249H2.01479V11.6442Z" fill="white"/>
<path d="M43.0481 5.26855C43.0481 7.58361 41.9063 8.99227 39.6229 9.49448L42.4436 13.4816H40.0992L37.5349 9.71495H24.5304V13.4816H22.5156V0.509766H37.187C41.0945 0.509766 43.0481 2.0654 43.0481 5.17667V5.26855ZM41.0516 5.25017V5.15829C41.0516 4.19063 40.7464 3.48018 40.1359 3.02694C39.5252 2.57374 38.5423 2.34713 37.187 2.34713H24.5304V7.89596H37.187C38.5912 7.89596 39.5865 7.69387 40.1724 7.28963C40.7585 6.87316 41.0516 6.19336 41.0516 5.25017Z" fill="white"/>
<path d="M65.4099 13.4819L63.0472 10.9647H47.7529L45.3902 13.4819H42.7344L55.4092 0.142578L68.0474 13.4819H65.4099ZM49.3832 9.21917H61.4169L55.4092 2.80676L49.3832 9.21917Z" fill="white"/>
<path d="M74.788 13.7572L62.6445 0.509766H65.227L74.788 11.0011L84.3491 0.509766H86.9318L74.788 13.7572Z" fill="white"/>
<path d="M87.7578 13.4816V0.509766H106.349V2.34713H89.7727V6.02186H106.349V7.82249H89.7727V11.6442H106.349V13.4816H87.7578Z" fill="white"/>
<path d="M106.965 13.481L116.801 6.95838L106.965 0.509223L110.225 0.454102L118.431 5.83757L126.636 0.454102L129.897 0.509223L120.079 6.95838L129.897 13.481H126.71L118.431 8.09754L110.152 13.481H106.965Z" fill="white"/>
</g>
<defs>
<clipPath id="clip0_4443_53">
<rect width="130" height="14" fill="white"/>
</clipPath>
</defs>
</svg>
