<svg width="120" height="22" viewBox="0 0 120 22" fill="none" xmlns="http://www.w3.org/2000/svg">
<path d="M0.236055 0.579999H3.98605V18.76H14.8761V22H0.236055V0.579999ZM22.2926 0.579999H26.2826L34.5326 22H30.5126L28.5026 16.33H19.9526L17.9426 22H14.0726L22.2926 0.579999ZM20.9726 13.48H27.5126L24.3026 4.27H24.2126L20.9726 13.48ZM32.8107 0.579999H36.6207L40.4907 16.96H40.5507L44.8707 0.579999H48.7107L52.9107 16.96H52.9707L56.9607 0.579999H60.7707L54.8607 22H51.0507L46.7607 5.62H46.7007L42.3207 22H38.4507L32.8107 0.579999ZM62.2507 0.579999H66.0007V9.1H75.7507V0.579999H79.5007V22H75.7507V12.34H66.0007V22H62.2507V0.579999ZM88.8211 0.579999H92.8111L101.061 22H97.0411L95.0311 16.33H86.4811L84.4711 22H80.6011L88.8211 0.579999ZM87.5011 13.48H94.0411L90.8311 4.27H90.7411L87.5011 13.48ZM105.951 9.55H112.071C112.971 9.55 113.721 9.3 114.321 8.8C114.921 8.28 115.221 7.54 115.221 6.58C115.221 5.5 114.951 4.74 114.411 4.3C113.871 3.86 113.091 3.64 112.071 3.64H105.951V9.55ZM102.201 0.579999H112.611C114.531 0.579999 116.071 1.02 117.231 1.9C118.391 2.78 118.971 4.11 118.971 5.89C118.971 6.97 118.701 7.9 118.161 8.68C117.641 9.44 116.891 10.03 115.911 10.45V10.51C117.231 10.79 118.231 11.42 118.911 12.4C119.591 13.36 119.931 14.57 119.931 16.03C119.931 16.87 119.781 17.66 119.481 18.4C119.181 19.12 118.711 19.75 118.071 20.29C117.431 20.81 116.611 21.23 115.611 21.55C114.611 21.85 113.421 22 112.041 22H102.201V0.579999ZM105.951 18.94H112.581C113.721 18.94 114.601 18.65 115.221 18.07C115.861 17.47 116.181 16.63 116.181 15.55C116.181 14.49 115.861 13.68 115.221 13.12C114.601 12.54 113.721 12.25 112.581 12.25H105.951V18.94Z" fill="#2B303C"/>
</svg>
