<svg width="57" height="57" viewBox="0 0 57 57" fill="none" xmlns="http://www.w3.org/2000/svg">
<path d="M13.5996 30.4C13.5996 30.8 13.7996 31 14.1996 31C14.8996 31 15.2997 30.4 15.3997 29.5C15.1997 29.5 15.1996 29.5 14.9996 29.5C14.0996 29.5 13.5996 29.8 13.5996 30.4Z" fill="#4C4C4C"/>
<path d="M39.1992 30.4C39.1992 30.8 39.3992 31 39.7992 31C40.4992 31 40.8992 30.4 40.9992 29.5C40.7992 29.5 40.7992 29.5 40.5992 29.5C39.5992 29.5 39.1992 29.8 39.1992 30.4Z" fill="#4C4C4C"/>
<path d="M27 27.3999C26.5 27.3999 26.1 27.7999 26 28.4999H27.8C27.8 28.2999 28 27.3999 27 27.3999Z" fill="#4C4C4C"/>
<path d="M48.7004 27.6001C48.0004 27.6001 47.4004 28.5001 47.4004 29.7001C47.4004 30.5001 47.7004 30.9001 48.2004 30.9001C49.0004 30.9001 49.5004 30.0001 49.5004 28.8001C49.6004 28.0001 49.3004 27.6001 48.7004 27.6001Z" fill="#4C4C4C"/>
<path d="M38.3 13.3999C34.5 13.3999 31 14.7999 28.3 17.1999C25.7 14.7999 22.2 13.3999 18.4 13.3999C10.2 13.3999 3.5 20.0999 3.5 28.2999C3.5 36.4999 10.2 43.1999 18.4 43.1999C22.2 43.1999 25.7 41.7999 28.3 39.3999C30.9 41.7999 34.4 43.1999 38.3 43.1999C46.5 43.1999 53.2 36.4999 53.2 28.2999C53.2 20.0999 46.5 13.3999 38.3 13.3999ZM9.79999 32.2999L10.7 26.4999L8.59998 32.2999H7.5L7.40002 26.4999L6.40002 32.2999H4.90002L6.20001 24.6999H8.5L8.59998 29.3999L10.2 24.6999H12.7L11.4 32.2999H9.79999ZM15.2 32.2999V31.6999C14.8 32.1999 14.2 32.3999 13.5 32.3999C12.6 32.3999 12 31.6999 12 30.6999C12 29.1999 13 28.2999 14.8 28.2999H15.5C15.6 28.0999 15.6 27.9999 15.6 27.8999C15.6 27.4999 15.3 27.2999 14.6 27.2999C13.8 27.2999 13.2 27.4999 12.9 27.5999C12.9 27.4999 13.1 26.1999 13.1 26.1999C13.9 25.9999 14.4 25.8999 15 25.8999C16.4 25.8999 17.1 26.4999 17.1 27.6999C17.1 27.9999 17.1 28.3999 17 28.8999C16.9 29.7999 16.6 31.6999 16.5 32.1999C16.3 32.2999 15.2 32.2999 15.2 32.2999ZM20 28.5999C20.8 28.9999 21.1 29.4999 21.1 30.2999C21.1 31.6999 20.3 32.3999 18.6 32.3999C17.6 32.3999 17.3 32.2999 16.9 32.1999C16.9 32.0999 17.1 30.7999 17.1 30.7999C17.6 30.9999 18.1 30.9999 18.6 30.9999C19.2 30.9999 19.5 30.7999 19.5 30.3999C19.5 30.0999 19.4 29.9999 18.7 29.6999C17.8 29.2999 17.5 28.7999 17.5 27.9999C17.5 26.8999 18.1 25.8999 19.9 25.8999C20.3 25.8999 20.9 25.9999 21.3 25.9999L21.1 27.3999C20.7 27.2999 20.3 27.2999 19.9 27.2999C19.4 27.2999 19.1 27.4999 19.1 27.7999C19.2 28.1999 19.3 28.2999 20 28.5999ZM23.5 30.8999C23.7 30.8999 23.8 30.8999 23.9 30.7999L23.7 32.1999C23.3 32.2999 22.9 32.3999 22.5 32.3999C21.7 32.3999 21.2 31.8999 21.2 30.9999C21.2 30.6999 21.3 29.9999 21.4 29.3999C21.5 28.7999 22.1 25.1999 22.1 25.1999H23.7L23.5 26.0999H24.3L24.1 27.5999H23.3C23.1 28.7999 22.8 30.1999 22.8 30.3999C23 30.6999 23.2 30.8999 23.5 30.8999ZM27.3 30.9999C27.9 30.9999 28.4 30.8999 29 30.5999L28.7 32.0999C28.1 32.2999 27.6 32.2999 27 32.2999C25.2 32.2999 24.3 31.3999 24.3 29.5999C24.3 27.4999 25.5 25.8999 27.1 25.8999C28.4 25.8999 29.3 26.7999 29.3 28.0999C29.3 28.5999 29.2 28.9999 29.1 29.5999H25.9C25.8 30.5999 26.4 30.9999 27.3 30.9999ZM30.9 32.2999H29.3L29.4 31.8999C29.7 29.9999 30 28.0999 30.2 26.1999H31.7C31.7 26.4999 31.6 26.7999 31.6 27.0999C32.1 26.3999 32.5 25.9999 33.2 26.0999C33 26.3999 32.7 27.0999 32.6 27.8999C31.6 27.7999 31.5 28.4999 30.9 32.2999ZM37.1 32.1999C36.5 32.3999 36.1 32.3999 35.7 32.3999C34 32.3999 32.9 31.0999 32.9 29.0999C32.9 26.3999 34.4 24.4999 36.6 24.4999C37.3 24.4999 38.1 24.7999 38.4 24.8999L38.1 26.4999C37.5 26.1999 37.1 26.0999 36.7 26.0999C35.5 26.0999 34.6 27.2999 34.6 28.8999C34.6 29.9999 35.2 30.6999 36.1 30.6999C36.5 30.6999 36.9 30.5999 37.5 30.2999L37.1 32.1999ZM42.1 32.2999C41.9 32.2999 40.8 32.2999 40.8 32.2999V31.6999C40.4 32.1999 39.8 32.3999 39.1 32.3999C38.2 32.3999 37.6 31.6999 37.6 30.6999C37.6 29.1999 38.6 28.2999 40.4 28.2999H41.1C41.2 28.0999 41.2 27.9999 41.2 27.8999C41.2 27.4999 40.9 27.2999 40.2 27.2999C39.4 27.2999 38.8 27.4999 38.5 27.5999C38.5 27.4999 38.7 26.1999 38.7 26.1999C39.5 25.9999 40 25.8999 40.6 25.8999C42 25.8999 42.7 26.4999 42.7 27.6999C42.7 27.9999 42.7 28.3999 42.6 28.8999C42.4 29.8999 42.1 31.7999 42.1 32.2999ZM44.3 32.2999H42.7L42.8 31.8999C43.1 29.9999 43.4 28.0999 43.6 26.1999H45.1C45.1 26.4999 45 26.7999 45 27.0999C45.5 26.3999 45.9 25.9999 46.6 26.0999C46.4 26.3999 46.1 27.0999 46 27.8999C45 27.7999 44.8 28.4999 44.3 32.2999ZM49.1 32.2999L49.2 31.6999C48.8 32.1999 48.3 32.3999 47.7 32.3999C46.5 32.3999 45.7 31.3999 45.7 29.7999C45.7 27.7999 46.9 25.9999 48.3 25.9999C48.9 25.9999 49.4 26.2999 49.8 26.7999L50.2 24.5999H51.8L50.6 32.1999H49.1V32.2999Z" fill="#4C4C4C"/>
</svg>
