<svg width="54" height="38" viewBox="0 0 54 38" fill="none" xmlns="http://www.w3.org/2000/svg">
<g clip-path="url(#clip0_2004_333)">
<path d="M24.1369 24.1212C23.6066 24.4242 22.9248 24.5757 22.1672 24.5757C20.5763 24.5757 19.4399 23.8182 18.6824 22.3788H23.5308V20.5606H18.1521C18.0763 20.2576 18.0763 19.9545 18.0763 19.5757C18.0763 19.2727 18.0763 18.9697 18.0763 18.8182H23.5309V17H18.5309C18.9096 16.2424 19.3642 15.6364 20.046 15.1818C20.6521 14.7273 21.4096 14.5 22.243 14.5C23.0005 14.5 23.7581 14.5757 24.2884 14.8788C24.8187 15.1818 25.4248 15.6364 26.0309 16.3182L27.546 14.4243C26.1824 12.8333 24.4399 12 22.1672 12C20.6521 12 19.3642 12.4545 18.1521 13.4394C16.94 14.3485 16.1066 15.5606 15.6521 17.0757H13.4551V18.7424H15.2733C15.2733 18.8939 15.2733 19.1969 15.2733 19.5C15.2733 19.803 15.2733 20.1818 15.349 20.4848H13.4551V22.303H15.8036C16.2581 23.7424 17.0914 24.8787 18.2278 25.7121C19.3642 26.5454 20.7278 27 22.1672 27C24.3642 27 26.1066 26.2424 27.3945 24.5757L25.8793 22.7576C25.2733 23.3636 24.6672 23.8182 24.1369 24.1212Z" fill="#4C4C4C"/>
</g>
<path d="M3.52 22.26C3.52 22.74 3.60667 23.1467 3.78 23.48C3.95333 23.8133 4.18 24.0867 4.46 24.3C4.75333 24.5 5.09333 24.6533 5.48 24.76C5.86667 24.8533 6.26667 24.9 6.68 24.9C6.96 24.9 7.26 24.88 7.58 24.84C7.9 24.7867 8.2 24.6933 8.48 24.56C8.76 24.4267 8.99333 24.2467 9.18 24.02C9.36667 23.78 9.46 23.48 9.46 23.12C9.46 22.7333 9.33333 22.42 9.08 22.18C8.84 21.94 8.52 21.74 8.12 21.58C7.72 21.42 7.26667 21.28 6.76 21.16C6.25333 21.04 5.74 20.9067 5.22 20.76C4.68667 20.6267 4.16667 20.4667 3.66 20.28C3.15333 20.08 2.7 19.8267 2.3 19.52C1.9 19.2133 1.57333 18.8333 1.32 18.38C1.08 17.9133 0.96 17.3533 0.96 16.7C0.96 15.9667 1.11333 15.3333 1.42 14.8C1.74 14.2533 2.15333 13.8 2.66 13.44C3.16667 13.08 3.74 12.8133 4.38 12.64C5.02 12.4667 5.66 12.38 6.3 12.38C7.04667 12.38 7.76 12.4667 8.44 12.64C9.13333 12.8 9.74667 13.0667 10.28 13.44C10.8133 13.8133 11.2333 14.2933 11.54 14.88C11.86 15.4533 12.02 16.1533 12.02 16.98H8.98C8.95333 16.5533 8.86 16.2 8.7 15.92C8.55333 15.64 8.35333 15.42 8.1 15.26C7.84667 15.1 7.55333 14.9867 7.22 14.92C6.9 14.8533 6.54667 14.82 6.16 14.82C5.90667 14.82 5.65333 14.8467 5.4 14.9C5.14667 14.9533 4.91333 15.0467 4.7 15.18C4.5 15.3133 4.33333 15.48 4.2 15.68C4.06667 15.88 4 16.1333 4 16.44C4 16.72 4.05333 16.9467 4.16 17.12C4.26667 17.2933 4.47333 17.4533 4.78 17.6C5.1 17.7467 5.53333 17.8933 6.08 18.04C6.64 18.1867 7.36667 18.3733 8.26 18.6C8.52667 18.6533 8.89333 18.7533 9.36 18.9C9.84 19.0333 10.3133 19.2533 10.78 19.56C11.2467 19.8667 11.6467 20.28 11.98 20.8C12.3267 21.3067 12.5 21.96 12.5 22.76C12.5 23.4133 12.3733 24.02 12.12 24.58C11.8667 25.14 11.4867 25.6267 10.98 26.04C10.4867 26.44 9.86667 26.7533 9.12 26.98C8.38667 27.2067 7.53333 27.32 6.56 27.32C5.77333 27.32 5.00667 27.22 4.26 27.02C3.52667 26.8333 2.87333 26.5333 2.3 26.12C1.74 25.7067 1.29333 25.18 0.96 24.54C0.626667 23.9 0.466667 23.14 0.48 22.26H3.52ZM32.6075 19.44H35.0475C35.4075 19.44 35.7542 19.4133 36.0875 19.36C36.4208 19.3067 36.7142 19.2067 36.9675 19.06C37.2208 18.9 37.4208 18.68 37.5675 18.4C37.7275 18.12 37.8075 17.7533 37.8075 17.3C37.8075 16.8467 37.7275 16.48 37.5675 16.2C37.4208 15.92 37.2208 15.7067 36.9675 15.56C36.7142 15.4 36.4208 15.2933 36.0875 15.24C35.7542 15.1867 35.4075 15.16 35.0475 15.16H32.6075V19.44ZM29.4675 12.72H35.9075C36.8008 12.72 37.5608 12.8533 38.1875 13.12C38.8142 13.3733 39.3208 13.7133 39.7075 14.14C40.1075 14.5667 40.3942 15.0533 40.5675 15.6C40.7542 16.1467 40.8475 16.7133 40.8475 17.3C40.8475 17.8733 40.7542 18.44 40.5675 19C40.3942 19.5467 40.1075 20.0333 39.7075 20.46C39.3208 20.8867 38.8142 21.2333 38.1875 21.5C37.5608 21.7533 36.8008 21.88 35.9075 21.88H32.6075V27H29.4675V12.72ZM44.523 21.48H48.223L46.423 16.24H46.383L44.523 21.48ZM44.823 12.72H48.043L53.383 27H50.123L49.043 23.82H43.703L42.583 27H39.423L44.823 12.72Z" fill="#4C4C4C"/>
<defs>
<clipPath id="clip0_2004_333">
<rect width="15" height="15" fill="white" transform="translate(13 12)"/>
</clipPath>
</defs>
</svg>
