<svg width="96" height="41" viewBox="0 0 96 41" fill="none" xmlns="http://www.w3.org/2000/svg">
<path d="M38.844 22.716C38.844 23.208 38.928 23.628 39.096 23.976C39.264 24.324 39.498 24.612 39.798 24.84C40.098 25.056 40.44 25.218 40.824 25.326C41.22 25.422 41.646 25.47 42.102 25.47C42.594 25.47 43.014 25.416 43.362 25.308C43.71 25.188 43.992 25.038 44.208 24.858C44.424 24.678 44.58 24.474 44.676 24.246C44.772 24.006 44.82 23.766 44.82 23.526C44.82 23.034 44.706 22.674 44.478 22.446C44.262 22.206 44.022 22.038 43.758 21.942C43.302 21.774 42.768 21.618 42.156 21.474C41.556 21.318 40.812 21.12 39.924 20.88C39.372 20.736 38.91 20.55 38.538 20.322C38.178 20.082 37.89 19.818 37.674 19.53C37.458 19.242 37.302 18.936 37.206 18.612C37.122 18.288 37.08 17.958 37.08 17.622C37.08 16.974 37.212 16.416 37.476 15.948C37.752 15.468 38.112 15.072 38.556 14.76C39 14.448 39.504 14.22 40.068 14.076C40.632 13.92 41.202 13.842 41.778 13.842C42.45 13.842 43.08 13.932 43.668 14.112C44.268 14.28 44.79 14.538 45.234 14.886C45.69 15.234 46.05 15.666 46.314 16.182C46.578 16.686 46.71 17.274 46.71 17.946H44.46C44.4 17.118 44.118 16.536 43.614 16.2C43.11 15.852 42.468 15.678 41.688 15.678C41.424 15.678 41.154 15.708 40.878 15.768C40.602 15.816 40.35 15.906 40.122 16.038C39.894 16.158 39.702 16.326 39.546 16.542C39.402 16.758 39.33 17.028 39.33 17.352C39.33 17.808 39.468 18.168 39.744 18.432C40.032 18.684 40.404 18.876 40.86 19.008C40.908 19.02 41.094 19.074 41.418 19.17C41.754 19.254 42.126 19.35 42.534 19.458C42.942 19.566 43.338 19.674 43.722 19.782C44.118 19.878 44.4 19.95 44.568 19.998C44.988 20.13 45.354 20.31 45.666 20.538C45.978 20.766 46.236 21.03 46.44 21.33C46.656 21.618 46.812 21.93 46.908 22.266C47.016 22.602 47.07 22.938 47.07 23.274C47.07 23.994 46.92 24.612 46.62 25.128C46.332 25.632 45.948 26.046 45.468 26.37C44.988 26.694 44.442 26.928 43.83 27.072C43.218 27.228 42.594 27.306 41.958 27.306C41.226 27.306 40.536 27.216 39.888 27.036C39.24 26.856 38.676 26.58 38.196 26.208C37.716 25.836 37.332 25.362 37.044 24.786C36.756 24.198 36.606 23.508 36.594 22.716H38.844ZM47.2399 14.148H49.5259L51.8479 23.976H51.8839L54.4759 14.148H56.7799L59.2999 23.976H59.3359L61.7299 14.148H64.0159L60.4699 27H58.1839L55.6099 17.172H55.5739L52.9459 27H50.6239L47.2399 14.148ZM64.9579 14.148H67.2079V27H64.9579V14.148ZM69.4277 14.148H78.3017V16.092H71.6777V19.458H77.4917V21.294H71.6777V27H69.4277V14.148ZM78.3336 14.148H88.7376V16.092H84.6516V27H82.4016V16.092H78.3336V14.148Z" fill="#4C4C4C"/>
<g clip-path="url(#clip0_2017_345)">
<path d="M13.5 7C6.06662 7 0 13.067 0 20.5C0 27.9334 6.06704 34 13.5 34C20.9334 34 27 27.933 27 20.5C27 13.0666 20.933 7 13.5 7ZM9.4731 9.28287C8.54687 10.4605 7.87377 11.9164 7.40802 13.3281H3.98783C5.37279 11.4958 7.27392 10.0748 9.4731 9.28287ZM2.97696 14.9049H6.96041C6.60255 16.4045 6.3913 18.0324 6.34057 19.709H1.60893C1.72252 17.9842 2.20446 16.3533 2.97696 14.9049ZM2.97696 26.0898C2.20446 24.6414 1.72252 23.0158 1.60893 21.291H6.34057C6.3913 22.9676 6.60255 24.5902 6.96041 26.0898H2.97696ZM3.98783 27.6719H7.40797C7.87361 29.0832 8.54671 30.5394 9.4731 31.7171C7.27392 30.9252 5.37279 29.5042 3.98783 27.6719ZM12.709 32.2837C10.9429 31.69 9.72517 29.4227 9.08202 27.6719H12.709V32.2837ZM12.709 26.0898H8.58964C8.2052 24.6114 7.97739 22.9846 7.92323 21.291H12.709V26.0898ZM12.709 19.709H7.92323C7.97745 18.0154 8.20526 16.3886 8.58964 14.9102H12.709V19.709ZM12.709 13.3281H9.08202C9.72512 11.5774 10.9429 9.30998 12.709 8.71629V13.3281ZM24.023 14.9102C24.7956 16.3586 25.2775 17.9842 25.3911 19.709H20.6594C20.6087 18.0324 20.3974 16.4098 20.0396 14.9102H24.023ZM23.0122 13.3281H19.592C19.1264 11.9168 18.4533 10.4606 17.5269 9.28287C19.7261 10.0748 21.6272 11.4958 23.0122 13.3281ZM14.291 8.71629C16.0571 9.30998 17.2748 11.5773 17.918 13.3281H14.291V8.71629ZM14.291 14.9102H18.4104C18.7948 16.3886 19.0226 18.0154 19.0768 19.709H14.291V14.9102ZM14.291 21.2857H19.0768C19.0226 22.9794 18.7947 24.6114 18.4104 26.0898H14.291V21.2857ZM14.291 32.2837V27.6666H17.918C17.2749 29.4173 16.0571 31.69 14.291 32.2837ZM17.5269 31.7171C18.4531 30.5395 19.1262 29.0782 19.592 27.6666H23.0122C21.6272 29.4989 19.7261 30.9252 17.5269 31.7171ZM24.023 26.0898H20.0396C20.3974 24.5902 20.6087 22.9623 20.6594 21.2857H25.3911C25.2775 23.0105 24.7955 24.6414 24.023 26.0898Z" fill="#4C4C4C"/>
</g>
<defs>
<clipPath id="clip0_2017_345">
<rect width="27" height="27" fill="white" transform="translate(0 7)"/>
</clipPath>
</defs>
</svg>
